# Blender 4.1.1
# www.blender.org
mtllib beam.mtl
o beam
v 0.000000 0.698363 0.000000
v 0.000000 1.000000 2.000000
v 0.136244 0.684944 0.000000
v 0.195090 0.980785 2.000000
v 0.267252 0.645203 0.000000
v 0.382683 0.923879 2.000000
v 0.387990 0.580667 0.000000
v 0.555570 0.831470 2.000000
v 0.493817 0.493817 0.000000
v 0.707107 0.707107 2.000000
v 0.580667 0.387990 0.000000
v 0.831470 0.555570 2.000000
v 0.645203 0.267252 0.000000
v 0.923879 0.382683 2.000000
v 0.684944 0.136244 0.000000
v 0.980785 0.195090 2.000000
v 0.698363 0.000000 0.000000
v 1.000000 0.000000 2.000000
v 0.684944 -0.136244 0.000000
v 0.980785 -0.195090 2.000000
v 0.645203 -0.267252 0.000000
v 0.923879 -0.382684 2.000000
v 0.580667 -0.387989 0.000000
v 0.831470 -0.555570 2.000000
v 0.493817 -0.493817 0.000000
v 0.707107 -0.707107 2.000000
v 0.387990 -0.580667 0.000000
v 0.555570 -0.831470 2.000000
v 0.267252 -0.645203 0.000000
v 0.382683 -0.923880 2.000000
v 0.136244 -0.684944 0.000000
v 0.195090 -0.980785 2.000000
v 0.000000 -0.698363 0.000000
v 0.000000 -1.000000 2.000000
v -0.136244 -0.684944 0.000000
v -0.195090 -0.980785 2.000000
v -0.267252 -0.645203 0.000000
v -0.382683 -0.923880 2.000000
v -0.387990 -0.580667 0.000000
v -0.555570 -0.831470 2.000000
v -0.493817 -0.493817 0.000000
v -0.707107 -0.707107 2.000000
v -0.580667 -0.387989 0.000000
v -0.831470 -0.555570 2.000000
v -0.645203 -0.267252 0.000000
v -0.923879 -0.382684 2.000000
v -0.684944 -0.136244 0.000000
v -0.980785 -0.195090 2.000000
v -0.698363 0.000000 0.000000
v -1.000000 0.000000 2.000000
v -0.684944 0.136244 0.000000
v -0.980785 0.195090 2.000000
v -0.645203 0.267252 0.000000
v -0.923879 0.382683 2.000000
v -0.580667 0.387990 0.000000
v -0.831470 0.555570 2.000000
v -0.493817 0.493817 0.000000
v -0.707107 0.707107 2.000000
v -0.387990 0.580667 0.000000
v -0.555570 0.831470 2.000000
v -0.267252 0.645203 0.000000
v -0.382683 0.923879 2.000000
v -0.136244 0.684944 0.000000
v -0.195090 0.980785 2.000000
v 0.000000 1.000000 0.500000
v 0.000000 1.000000 1.000000
v 0.000000 1.000000 1.500000
v 0.195090 0.980785 1.500000
v 0.195090 0.980785 1.000000
v 0.195090 0.980785 0.500000
v 0.382683 0.923880 1.500000
v 0.382683 0.923880 1.000000
v 0.382683 0.923880 0.500000
v 0.555570 0.831470 1.500000
v 0.555570 0.831470 1.000000
v 0.555570 0.831470 0.500000
v 0.707107 0.707107 1.500000
v 0.707107 0.707107 1.000000
v 0.707107 0.707107 0.500000
v 0.831470 0.555570 1.500000
v 0.831470 0.555570 1.000000
v 0.831470 0.555570 0.500000
v 0.923879 0.382683 1.500000
v 0.923879 0.382683 1.000000
v 0.923879 0.382683 0.500000
v 0.980785 0.195090 1.500000
v 0.980785 0.195090 1.000000
v 0.980785 0.195090 0.500000
v 1.000000 0.000000 1.500000
v 1.000000 0.000000 1.000000
v 1.000000 0.000000 0.500000
v 0.980785 -0.195090 1.500000
v 0.980785 -0.195090 1.000000
v 0.980785 -0.195090 0.500000
v 0.923879 -0.382683 1.500000
v 0.923879 -0.382683 1.000000
v 0.923879 -0.382683 0.500000
v 0.831470 -0.555570 1.500000
v 0.831470 -0.555570 1.000000
v 0.831470 -0.555570 0.500000
v 0.707107 -0.707107 1.500000
v 0.707107 -0.707107 1.000000
v 0.707107 -0.707107 0.500000
v 0.555570 -0.831470 1.500000
v 0.555570 -0.831470 1.000000
v 0.555570 -0.831470 0.500000
v 0.382683 -0.923880 1.500000
v 0.382683 -0.923880 1.000000
v 0.382683 -0.923880 0.500000
v 0.195090 -0.980785 1.500000
v 0.195090 -0.980785 1.000000
v 0.195090 -0.980785 0.500000
v 0.000000 -1.000000 1.500000
v 0.000000 -1.000000 1.000000
v 0.000000 -1.000000 0.500000
v -0.195090 -0.980785 1.500000
v -0.195090 -0.980785 1.000000
v -0.195090 -0.980785 0.500000
v -0.382683 -0.923880 1.500000
v -0.382683 -0.923880 1.000000
v -0.382683 -0.923880 0.500000
v -0.555570 -0.831470 1.500000
v -0.555570 -0.831470 1.000000
v -0.555570 -0.831470 0.500000
v -0.707107 -0.707107 1.500000
v -0.707107 -0.707107 1.000000
v -0.707107 -0.707107 0.500000
v -0.831470 -0.555570 1.500000
v -0.831470 -0.555570 1.000000
v -0.831470 -0.555570 0.500000
v -0.923879 -0.382683 1.500000
v -0.923879 -0.382683 1.000000
v -0.923879 -0.382683 0.500000
v -0.980785 -0.195090 1.500000
v -0.980785 -0.195090 1.000000
v -0.980785 -0.195090 0.500000
v -1.000000 0.000000 1.500000
v -1.000000 0.000000 1.000000
v -1.000000 0.000000 0.500000
v -0.980785 0.195090 1.500000
v -0.980785 0.195090 1.000000
v -0.980785 0.195090 0.500000
v -0.923879 0.382683 1.500000
v -0.923879 0.382683 1.000000
v -0.923879 0.382683 0.500000
v -0.831470 0.555570 1.500000
v -0.831470 0.555570 1.000000
v -0.831470 0.555570 0.500000
v -0.707107 0.707107 1.500000
v -0.707107 0.707107 1.000000
v -0.707107 0.707107 0.500000
v -0.555570 0.831470 1.500000
v -0.555570 0.831470 1.000000
v -0.555570 0.831470 0.500000
v -0.382683 0.923880 1.500000
v -0.382683 0.923880 1.000000
v -0.382683 0.923880 0.500000
v -0.195090 0.980785 1.500000
v -0.195090 0.980785 1.000000
v -0.195090 0.980785 0.500000
vn -0.0000 0.8563 -0.5166
vn -0.0000 1.0000 -0.0000
vn 0.1670 0.8398 -0.5166
vn 0.1951 0.9808 -0.0000
vn 0.3277 0.7911 -0.5166
vn 0.3827 0.9239 -0.0000
vn 0.4757 0.7119 -0.5166
vn 0.5556 0.8315 -0.0000
vn 0.6055 0.6055 -0.5166
vn 0.7071 0.7071 -0.0000
vn 0.7119 0.4757 -0.5166
vn 0.8315 0.5556 -0.0000
vn 0.7911 0.3277 -0.5166
vn 0.9239 0.3827 -0.0000
vn 0.8398 0.1670 -0.5166
vn 0.9808 0.1951 -0.0000
vn 0.8563 -0.0000 -0.5166
vn 1.0000 -0.0000 -0.0000
vn 0.8398 -0.1670 -0.5166
vn 0.9808 -0.1951 -0.0000
vn 0.7911 -0.3277 -0.5166
vn 0.9239 -0.3827 -0.0000
vn 0.7119 -0.4757 -0.5166
vn 0.8315 -0.5556 -0.0000
vn 0.6055 -0.6055 -0.5166
vn 0.7071 -0.7071 -0.0000
vn 0.4757 -0.7119 -0.5166
vn 0.5556 -0.8315 -0.0000
vn 0.3277 -0.7911 -0.5166
vn 0.3827 -0.9239 -0.0000
vn 0.1670 -0.8398 -0.5166
vn 0.1951 -0.9808 -0.0000
vn -0.0000 -0.8563 -0.5166
vn -0.0000 -1.0000 -0.0000
vn -0.1670 -0.8398 -0.5166
vn -0.1951 -0.9808 -0.0000
vn -0.3277 -0.7911 -0.5166
vn -0.3827 -0.9239 -0.0000
vn -0.4757 -0.7119 -0.5166
vn -0.5556 -0.8315 -0.0000
vn -0.6055 -0.6055 -0.5166
vn -0.7071 -0.7071 -0.0000
vn -0.7119 -0.4757 -0.5166
vn -0.8315 -0.5556 -0.0000
vn -0.7911 -0.3277 -0.5166
vn -0.9239 -0.3827 -0.0000
vn -0.8398 -0.1670 -0.5166
vn -0.9808 -0.1951 -0.0000
vn -0.8563 -0.0000 -0.5166
vn -1.0000 -0.0000 -0.0000
vn -0.8398 0.1670 -0.5166
vn -0.9808 0.1951 -0.0000
vn -0.7911 0.3277 -0.5166
vn -0.9239 0.3827 -0.0000
vn -0.7119 0.4757 -0.5166
vn -0.8315 0.5556 -0.0000
vn -0.6055 0.6055 -0.5166
vn -0.7071 0.7071 -0.0000
vn -0.4757 0.7119 -0.5166
vn -0.5556 0.8315 -0.0000
vn -0.3277 0.7911 -0.5166
vn -0.3827 0.9239 -0.0000
vn -0.1670 0.8398 -0.5166
vn -0.1951 0.9808 -0.0000
vn -0.0000 0.9646 -0.2639
vn 0.1882 0.9460 -0.2639
vn 0.3691 0.8911 -0.2639
vn 0.5359 0.8020 -0.2639
vn 0.6820 0.6820 -0.2639
vn 0.8020 0.5359 -0.2639
vn 0.8911 0.3691 -0.2639
vn 0.9460 0.1882 -0.2639
vn 0.9646 -0.0000 -0.2639
vn 0.9460 -0.1882 -0.2639
vn 0.8911 -0.3691 -0.2639
vn 0.8020 -0.5359 -0.2639
vn 0.6820 -0.6820 -0.2639
vn 0.5359 -0.8020 -0.2639
vn 0.3691 -0.8911 -0.2639
vn 0.1882 -0.9460 -0.2639
vn -0.0000 -0.9646 -0.2639
vn -0.1882 -0.9460 -0.2639
vn -0.3691 -0.8911 -0.2639
vn -0.5359 -0.8020 -0.2639
vn -0.6820 -0.6820 -0.2639
vn -0.8020 -0.5359 -0.2639
vn -0.8911 -0.3691 -0.2639
vn -0.9460 -0.1882 -0.2639
vn -0.9646 -0.0000 -0.2639
vn -0.9460 0.1882 -0.2639
vn -0.8911 0.3691 -0.2639
vn -0.8020 0.5359 -0.2639
vn -0.6820 0.6820 -0.2639
vn -0.5359 0.8020 -0.2639
vn -0.3691 0.8911 -0.2639
vn -0.1882 0.9460 -0.2639
vt 1.000000 0.750000
vt 1.000000 1.000000
vt 0.968750 1.000000
vt 0.968750 0.750000
vt 0.937500 1.000000
vt 0.937500 0.750000
vt 0.906250 1.000000
vt 0.906250 0.750000
vt 0.875000 1.000000
vt 0.875000 0.750000
vt 0.843750 1.000000
vt 0.843750 0.750000
vt 0.812500 1.000000
vt 0.812500 0.750000
vt 0.781250 1.000000
vt 0.781250 0.750000
vt 0.750000 1.000000
vt 0.750000 0.750000
vt 0.718750 1.000000
vt 0.718750 0.750000
vt 0.687500 1.000000
vt 0.687500 0.750000
vt 0.656250 1.000000
vt 0.656250 0.750000
vt 0.625000 1.000000
vt 0.625000 0.750000
vt 0.593750 1.000000
vt 0.593750 0.750000
vt 0.562500 1.000000
vt 0.562500 0.750000
vt 0.531250 1.000000
vt 0.531250 0.750000
vt 0.500000 1.000000
vt 0.500000 0.750000
vt 0.468750 1.000000
vt 0.468750 0.750000
vt 0.437500 1.000000
vt 0.437500 0.750000
vt 0.406250 1.000000
vt 0.406250 0.750000
vt 0.375000 1.000000
vt 0.375000 0.750000
vt 0.343750 1.000000
vt 0.343750 0.750000
vt 0.312500 1.000000
vt 0.312500 0.750000
vt 0.281250 1.000000
vt 0.281250 0.750000
vt 0.250000 1.000000
vt 0.250000 0.750000
vt 0.218750 1.000000
vt 0.218750 0.750000
vt 0.187500 1.000000
vt 0.187500 0.750000
vt 0.156250 1.000000
vt 0.156250 0.750000
vt 0.125000 1.000000
vt 0.125000 0.750000
vt 0.093750 1.000000
vt 0.093750 0.750000
vt 0.062500 1.000000
vt 0.062500 0.750000
vt 0.031250 1.000000
vt 0.031250 0.750000
vt 0.000000 1.000000
vt 0.000000 0.750000
vt 0.031250 0.000000
vt 0.031250 0.250000
vt 0.000000 0.250000
vt 0.000000 0.000000
vt 0.031250 0.500000
vt 0.000000 0.500000
vt 0.062500 0.000000
vt 0.062500 0.250000
vt 0.062500 0.500000
vt 0.093750 0.000000
vt 0.093750 0.250000
vt 0.093750 0.500000
vt 0.125000 0.000000
vt 0.125000 0.250000
vt 0.125000 0.500000
vt 0.156250 0.000000
vt 0.156250 0.250000
vt 0.156250 0.500000
vt 0.187500 0.000000
vt 0.187500 0.250000
vt 0.187500 0.500000
vt 0.218750 0.000000
vt 0.218750 0.250000
vt 0.218750 0.500000
vt 0.250000 0.000000
vt 0.250000 0.250000
vt 0.250000 0.500000
vt 0.281250 0.000000
vt 0.281250 0.250000
vt 0.281250 0.500000
vt 0.312500 0.000000
vt 0.312500 0.250000
vt 0.312500 0.500000
vt 0.343750 0.000000
vt 0.343750 0.250000
vt 0.343750 0.500000
vt 0.375000 0.000000
vt 0.375000 0.250000
vt 0.375000 0.500000
vt 0.406250 0.000000
vt 0.406250 0.250000
vt 0.406250 0.500000
vt 0.437500 0.000000
vt 0.437500 0.250000
vt 0.437500 0.500000
vt 0.468750 0.000000
vt 0.468750 0.250000
vt 0.468750 0.500000
vt 0.500000 0.000000
vt 0.500000 0.250000
vt 0.500000 0.500000
vt 0.531250 0.000000
vt 0.531250 0.250000
vt 0.531250 0.500000
vt 0.562500 0.000000
vt 0.562500 0.250000
vt 0.562500 0.500000
vt 0.593750 0.000000
vt 0.593750 0.250000
vt 0.593750 0.500000
vt 0.625000 0.000000
vt 0.625000 0.250000
vt 0.625000 0.500000
vt 0.656250 0.000000
vt 0.656250 0.250000
vt 0.656250 0.500000
vt 0.687500 0.000000
vt 0.687500 0.250000
vt 0.687500 0.500000
vt 0.718750 0.000000
vt 0.718750 0.250000
vt 0.718750 0.500000
vt 0.750000 0.000000
vt 0.750000 0.250000
vt 0.750000 0.500000
vt 0.781250 0.000000
vt 0.781250 0.250000
vt 0.781250 0.500000
vt 0.812500 0.000000
vt 0.812500 0.250000
vt 0.812500 0.500000
vt 0.843750 0.000000
vt 0.843750 0.250000
vt 0.843750 0.500000
vt 0.875000 0.000000
vt 0.875000 0.250000
vt 0.875000 0.500000
vt 0.906250 0.000000
vt 0.906250 0.250000
vt 0.906250 0.500000
vt 0.937500 0.000000
vt 0.937500 0.250000
vt 0.937500 0.500000
vt 0.968750 0.000000
vt 0.968750 0.250000
vt 0.968750 0.500000
vt 1.000000 0.000000
vt 1.000000 0.250000
vt 1.000000 0.500000
s 1
f 67/1/2 2/2/2 4/3/4 68/4/4
f 68/4/4 4/3/4 6/5/6 71/6/6
f 71/6/6 6/5/6 8/7/8 74/8/8
f 74/8/8 8/7/8 10/9/10 77/10/10
f 77/10/10 10/9/10 12/11/12 80/12/12
f 80/12/12 12/11/12 14/13/14 83/14/14
f 83/14/14 14/13/14 16/15/16 86/16/16
f 86/16/16 16/15/16 18/17/18 89/18/18
f 89/18/18 18/17/18 20/19/20 92/20/20
f 92/20/20 20/19/20 22/21/22 95/22/22
f 95/22/22 22/21/22 24/23/24 98/24/24
f 98/24/24 24/23/24 26/25/26 101/26/26
f 101/26/26 26/25/26 28/27/28 104/28/28
f 104/28/28 28/27/28 30/29/30 107/30/30
f 107/30/30 30/29/30 32/31/32 110/32/32
f 110/32/32 32/31/32 34/33/34 113/34/34
f 113/34/34 34/33/34 36/35/36 116/36/36
f 116/36/36 36/35/36 38/37/38 119/38/38
f 119/38/38 38/37/38 40/39/40 122/40/40
f 122/40/40 40/39/40 42/41/42 125/42/42
f 125/42/42 42/41/42 44/43/44 128/44/44
f 128/44/44 44/43/44 46/45/46 131/46/46
f 131/46/46 46/45/46 48/47/48 134/48/48
f 134/48/48 48/47/48 50/49/50 137/50/50
f 137/50/50 50/49/50 52/51/52 140/52/52
f 140/52/52 52/51/52 54/53/54 143/54/54
f 143/54/54 54/53/54 56/55/56 146/56/56
f 146/56/56 56/55/56 58/57/58 149/58/58
f 149/58/58 58/57/58 60/59/60 152/60/60
f 152/60/60 60/59/60 62/61/62 155/62/62
f 155/62/62 62/61/62 64/63/64 158/64/64
f 158/64/64 64/63/64 2/65/2 67/66/2
f 63/67/63 160/68/96 65/69/65 1/70/1
f 160/68/96 159/71/64 66/72/2 65/69/65
f 159/71/64 158/64/64 67/66/2 66/72/2
f 61/73/61 157/74/95 160/68/96 63/67/63
f 157/74/95 156/75/62 159/71/64 160/68/96
f 156/75/62 155/62/62 158/64/64 159/71/64
f 59/76/59 154/77/94 157/74/95 61/73/61
f 154/77/94 153/78/60 156/75/62 157/74/95
f 153/78/60 152/60/60 155/62/62 156/75/62
f 57/79/57 151/80/93 154/77/94 59/76/59
f 151/80/93 150/81/58 153/78/60 154/77/94
f 150/81/58 149/58/58 152/60/60 153/78/60
f 55/82/55 148/83/92 151/80/93 57/79/57
f 148/83/92 147/84/56 150/81/58 151/80/93
f 147/84/56 146/56/56 149/58/58 150/81/58
f 53/85/53 145/86/91 148/83/92 55/82/55
f 145/86/91 144/87/54 147/84/56 148/83/92
f 144/87/54 143/54/54 146/56/56 147/84/56
f 51/88/51 142/89/90 145/86/91 53/85/53
f 142/89/90 141/90/52 144/87/54 145/86/91
f 141/90/52 140/52/52 143/54/54 144/87/54
f 49/91/49 139/92/89 142/89/90 51/88/51
f 139/92/89 138/93/50 141/90/52 142/89/90
f 138/93/50 137/50/50 140/52/52 141/90/52
f 47/94/47 136/95/88 139/92/89 49/91/49
f 136/95/88 135/96/48 138/93/50 139/92/89
f 135/96/48 134/48/48 137/50/50 138/93/50
f 45/97/45 133/98/87 136/95/88 47/94/47
f 133/98/87 132/99/46 135/96/48 136/95/88
f 132/99/46 131/46/46 134/48/48 135/96/48
f 43/100/43 130/101/86 133/98/87 45/97/45
f 130/101/86 129/102/44 132/99/46 133/98/87
f 129/102/44 128/44/44 131/46/46 132/99/46
f 41/103/41 127/104/85 130/101/86 43/100/43
f 127/104/85 126/105/42 129/102/44 130/101/86
f 126/105/42 125/42/42 128/44/44 129/102/44
f 39/106/39 124/107/84 127/104/85 41/103/41
f 124/107/84 123/108/40 126/105/42 127/104/85
f 123/108/40 122/40/40 125/42/42 126/105/42
f 37/109/37 121/110/83 124/107/84 39/106/39
f 121/110/83 120/111/38 123/108/40 124/107/84
f 120/111/38 119/38/38 122/40/40 123/108/40
f 35/112/35 118/113/82 121/110/83 37/109/37
f 118/113/82 117/114/36 120/111/38 121/110/83
f 117/114/36 116/36/36 119/38/38 120/111/38
f 33/115/33 115/116/81 118/113/82 35/112/35
f 115/116/81 114/117/34 117/114/36 118/113/82
f 114/117/34 113/34/34 116/36/36 117/114/36
f 31/118/31 112/119/80 115/116/81 33/115/33
f 112/119/80 111/120/32 114/117/34 115/116/81
f 111/120/32 110/32/32 113/34/34 114/117/34
f 29/121/29 109/122/79 112/119/80 31/118/31
f 109/122/79 108/123/30 111/120/32 112/119/80
f 108/123/30 107/30/30 110/32/32 111/120/32
f 27/124/27 106/125/78 109/122/79 29/121/29
f 106/125/78 105/126/28 108/123/30 109/122/79
f 105/126/28 104/28/28 107/30/30 108/123/30
f 25/127/25 103/128/77 106/125/78 27/124/27
f 103/128/77 102/129/26 105/126/28 106/125/78
f 102/129/26 101/26/26 104/28/28 105/126/28
f 23/130/23 100/131/76 103/128/77 25/127/25
f 100/131/76 99/132/24 102/129/26 103/128/77
f 99/132/24 98/24/24 101/26/26 102/129/26
f 21/133/21 97/134/75 100/131/76 23/130/23
f 97/134/75 96/135/22 99/132/24 100/131/76
f 96/135/22 95/22/22 98/24/24 99/132/24
f 19/136/19 94/137/74 97/134/75 21/133/21
f 94/137/74 93/138/20 96/135/22 97/134/75
f 93/138/20 92/20/20 95/22/22 96/135/22
f 17/139/17 91/140/73 94/137/74 19/136/19
f 91/140/73 90/141/18 93/138/20 94/137/74
f 90/141/18 89/18/18 92/20/20 93/138/20
f 15/142/15 88/143/72 91/140/73 17/139/17
f 88/143/72 87/144/16 90/141/18 91/140/73
f 87/144/16 86/16/16 89/18/18 90/141/18
f 13/145/13 85/146/71 88/143/72 15/142/15
f 85/146/71 84/147/14 87/144/16 88/143/72
f 84/147/14 83/14/14 86/16/16 87/144/16
f 11/148/11 82/149/70 85/146/71 13/145/13
f 82/149/70 81/150/12 84/147/14 85/146/71
f 81/150/12 80/12/12 83/14/14 84/147/14
f 9/151/9 79/152/69 82/149/70 11/148/11
f 79/152/69 78/153/10 81/150/12 82/149/70
f 78/153/10 77/10/10 80/12/12 81/150/12
f 7/154/7 76/155/68 79/152/69 9/151/9
f 76/155/68 75/156/8 78/153/10 79/152/69
f 75/156/8 74/8/8 77/10/10 78/153/10
f 5/157/5 73/158/67 76/155/68 7/154/7
f 73/158/67 72/159/6 75/156/8 76/155/68
f 72/159/6 71/6/6 74/8/8 75/156/8
f 3/160/3 70/161/66 73/158/67 5/157/5
f 70/161/66 69/162/4 72/159/6 73/158/67
f 69/162/4 68/4/4 71/6/6 72/159/6
f 1/163/1 65/164/65 70/161/66 3/160/3
f 65/164/65 66/165/2 69/162/4 70/161/66
f 66/165/2 67/1/2 68/4/4 69/162/4
