# Blender 4.1.1
# www.blender.org
mtllib pentagon.mtl
o pentagon
v 0.900000 0.000000 0.000000
v 0.850000 0.086602 0.000000
v 0.750000 0.086602 0.000000
v 0.700000 0.000000 0.000000
v 0.750000 -0.086602 0.000000
v 0.850000 -0.086602 0.000000
v 0.278115 0.000000 -0.855951
v 0.262665 0.086602 -0.808398
v 0.231763 0.086602 -0.713292
v 0.216312 0.000000 -0.665740
v 0.231763 -0.086602 -0.713292
v 0.262665 -0.086602 -0.808398
v -0.728115 0.000000 -0.529006
v -0.687665 0.086602 -0.499617
v -0.606763 0.086602 -0.440839
v -0.566312 0.000000 -0.411450
v -0.606763 -0.086602 -0.440839
v -0.687665 -0.086602 -0.499617
v -0.728115 0.000000 0.529006
v -0.687665 0.086602 0.499617
v -0.606763 0.086602 0.440839
v -0.566312 0.000000 0.411450
v -0.606763 -0.086602 0.440839
v -0.687665 -0.086602 0.499617
v 0.278115 0.000000 0.855951
v 0.262665 0.086602 0.808398
v 0.231763 0.086602 0.713292
v 0.216312 0.000000 0.665740
v 0.231763 -0.086602 0.713292
v 0.262665 -0.086602 0.808398
vn 0.7330 0.4232 -0.5326
vn -0.0000 1.0000 -0.0000
vn -0.7330 0.4232 0.5326
vn -0.7330 -0.4232 0.5326
vn -0.0000 -1.0000 -0.0000
vn 0.7330 -0.4232 -0.5326
vn -0.2800 0.4232 -0.8617
vn 0.2800 0.4232 0.8617
vn 0.2800 -0.4232 0.8617
vn -0.2800 -0.4232 -0.8617
vn -0.9060 0.4232 -0.0000
vn 0.9060 0.4232 -0.0000
vn 0.9060 -0.4232 -0.0000
vn -0.9060 -0.4232 -0.0000
vn -0.2800 0.4232 0.8617
vn 0.2800 0.4232 -0.8617
vn 0.2800 -0.4232 -0.8617
vn -0.2800 -0.4232 0.8617
vn 0.7330 0.4232 0.5326
vn -0.7330 0.4232 -0.5326
vn -0.7330 -0.4232 -0.5326
vn 0.7330 -0.4232 0.5326
vt 0.600000 0.500000
vt 0.800000 0.500000
vt 0.800000 0.666667
vt 0.600000 0.666667
vt 0.800000 0.833333
vt 0.600000 0.833333
vt 0.800000 1.000000
vt 0.600000 1.000000
vt 0.600000 -0.000000
vt 0.800000 -0.000000
vt 0.800000 0.166667
vt 0.600000 0.166667
vt 0.800000 0.333333
vt 0.600000 0.333333
vt 1.000000 0.500000
vt 1.000000 0.666667
vt 1.000000 0.833333
vt 1.000000 1.000000
vt 1.000000 -0.000000
vt 1.000000 0.166667
vt 1.000000 0.333333
vt 0.000000 0.500000
vt 0.200000 0.500000
vt 0.200000 0.666667
vt 0.000000 0.666667
vt 0.200000 0.833333
vt 0.000000 0.833333
vt 0.200000 1.000000
vt 0.000000 1.000000
vt 0.000000 -0.000000
vt 0.200000 -0.000000
vt 0.200000 0.166667
vt 0.000000 0.166667
vt 0.200000 0.333333
vt 0.000000 0.333333
vt 0.400000 0.500000
vt 0.400000 0.666667
vt 0.400000 0.833333
vt 0.400000 1.000000
vt 0.400000 -0.000000
vt 0.400000 0.166667
vt 0.400000 0.333333
s 0
f 1/1/1 7/2/1 8/3/1 2/4/1
f 2/4/2 8/3/2 9/5/2 3/6/2
f 3/6/3 9/5/3 10/7/3 4/8/3
f 4/9/4 10/10/4 11/11/4 5/12/4
f 5/12/5 11/11/5 12/13/5 6/14/5
f 6/14/6 12/13/6 7/2/6 1/1/6
f 7/2/7 13/15/7 14/16/7 8/3/7
f 8/3/2 14/16/2 15/17/2 9/5/2
f 9/5/8 15/17/8 16/18/8 10/7/8
f 10/10/9 16/19/9 17/20/9 11/11/9
f 11/11/5 17/20/5 18/21/5 12/13/5
f 12/13/10 18/21/10 13/15/10 7/2/10
f 13/22/11 19/23/11 20/24/11 14/25/11
f 14/25/2 20/24/2 21/26/2 15/27/2
f 15/27/12 21/26/12 22/28/12 16/29/12
f 16/30/13 22/31/13 23/32/13 17/33/13
f 17/33/5 23/32/5 24/34/5 18/35/5
f 18/35/14 24/34/14 19/23/14 13/22/14
f 19/23/15 25/36/15 26/37/15 20/24/15
f 20/24/2 26/37/2 27/38/2 21/26/2
f 21/26/16 27/38/16 28/39/16 22/28/16
f 22/31/17 28/40/17 29/41/17 23/32/17
f 23/32/5 29/41/5 30/42/5 24/34/5
f 24/34/18 30/42/18 25/36/18 19/23/18
f 25/36/19 1/1/19 2/4/19 26/37/19
f 26/37/2 2/4/2 3/6/2 27/38/2
f 27/38/20 3/6/20 4/8/20 28/39/20
f 28/40/21 4/9/21 5/12/21 29/41/21
f 29/41/5 5/12/5 6/14/5 30/42/5
f 30/42/22 6/14/22 1/1/22 25/36/22
