# Blender 4.1.1
# www.blender.org
mtllib square.mtl
o square
v 0.900000 0.000000 0.000000
v 0.850000 0.086602 0.000000
v 0.750000 0.086602 0.000000
v 0.700000 0.000000 0.000000
v 0.750000 -0.086602 0.000000
v 0.850000 -0.086602 0.000000
v 0.000000 0.000000 -0.900000
v 0.000000 0.086602 -0.850000
v 0.000000 0.086602 -0.750000
v 0.000000 0.000000 -0.700000
v 0.000000 -0.086602 -0.750000
v 0.000000 -0.086602 -0.850000
v -0.900000 0.000000 -0.000000
v -0.850000 0.086602 -0.000000
v -0.750000 0.086602 -0.000000
v -0.700000 0.000000 -0.000000
v -0.750000 -0.086602 -0.000000
v -0.850000 -0.086602 -0.000000
v 0.000000 0.000000 0.900000
v 0.000000 0.086602 0.850000
v 0.000000 0.086602 0.750000
v 0.000000 0.000000 0.700000
v 0.000000 -0.086602 0.750000
v 0.000000 -0.086602 0.850000
vn 0.6547 0.3780 -0.6547
vn -0.0000 1.0000 -0.0000
vn -0.6547 0.3780 0.6547
vn -0.6547 -0.3780 0.6547
vn -0.0000 -1.0000 -0.0000
vn 0.6547 -0.3780 -0.6547
vn -0.6547 0.3780 -0.6547
vn 0.6547 0.3780 0.6547
vn 0.6547 -0.3780 0.6547
vn -0.6547 -0.3780 -0.6547
vt 0.500000 0.500000
vt 0.750000 0.500000
vt 0.750000 0.666667
vt 0.500000 0.666667
vt 0.750000 0.833333
vt 0.500000 0.833333
vt 0.750000 1.000000
vt 0.500000 1.000000
vt 0.500000 -0.000000
vt 0.750000 -0.000000
vt 0.750000 0.166667
vt 0.500000 0.166667
vt 0.750000 0.333333
vt 0.500000 0.333333
vt 1.000000 0.500000
vt 1.000000 0.666667
vt 1.000000 0.833333
vt 1.000000 1.000000
vt 1.000000 -0.000000
vt 1.000000 0.166667
vt 1.000000 0.333333
vt 0.000000 0.500000
vt 0.250000 0.500000
vt 0.250000 0.666667
vt 0.000000 0.666667
vt 0.250000 0.833333
vt 0.000000 0.833333
vt 0.250000 1.000000
vt 0.000000 1.000000
vt 0.000000 -0.000000
vt 0.250000 -0.000000
vt 0.250000 0.166667
vt 0.000000 0.166667
vt 0.250000 0.333333
vt 0.000000 0.333333
s 0
f 1/1/1 7/2/1 8/3/1 2/4/1
f 2/4/2 8/3/2 9/5/2 3/6/2
f 3/6/3 9/5/3 10/7/3 4/8/3
f 4/9/4 10/10/4 11/11/4 5/12/4
f 5/12/5 11/11/5 12/13/5 6/14/5
f 6/14/6 12/13/6 7/2/6 1/1/6
f 7/2/7 13/15/7 14/16/7 8/3/7
f 8/3/2 14/16/2 15/17/2 9/5/2
f 9/5/8 15/17/8 16/18/8 10/7/8
f 10/10/9 16/19/9 17/20/9 11/11/9
f 11/11/5 17/20/5 18/21/5 12/13/5
f 12/13/10 18/21/10 13/15/10 7/2/10
f 13/22/3 19/23/3 20/24/3 14/25/3
f 14/25/2 20/24/2 21/26/2 15/27/2
f 15/27/1 21/26/1 22/28/1 16/29/1
f 16/30/6 22/31/6 23/32/6 17/33/6
f 17/33/5 23/32/5 24/34/5 18/35/5
f 18/35/4 24/34/4 19/23/4 13/22/4
f 19/23/8 1/1/8 2/4/8 20/24/8
f 20/24/2 2/4/2 3/6/2 21/26/2
f 21/26/7 3/6/7 4/8/7 22/28/7
f 22/31/10 4/9/10 5/12/10 23/32/10
f 23/32/5 5/12/5 6/14/5 24/34/5
f 24/34/9 6/14/9 1/1/9 19/23/9
